<?xml version="1.0" encoding="utf-8"?>
<!-- Generator: Adobe Illustrator 20.1.0, SVG Export Plug-In . SVG Version: 6.00 Build 0)  -->
<svg version="1.1" id="Capa_1" xmlns="http://www.w3.org/2000/svg" xmlns:xlink="http://www.w3.org/1999/xlink" x="0px" y="0px"
	 viewBox="0 0 512 512" style="enable-background:new 0 0 512 512;" xml:space="preserve">
<style type="text/css">
	.st0{fill:#AEB1BA;}
	.st1{fill:#303542;}
</style>
<path class="st0" d="M335.6,199.2v34H421v85.3h-85.3V512H256V318.6h-62.6v-85.3H256V200c0-57.3,43.1-109,96-109h69v85.3h-69
	C344.5,176.3,335.6,185.5,335.6,199.2z"/>
<g>
	<path class="st1" d="M512,85.3v341.4c0,44.7-40.2,85.1-85,85.3h-91.3V318.5H421v-85.3h-85.4v-34c0-13.7,8.9-22.9,16.4-22.9h69V91
		h-69c-52.9,0-96,51.7-96,109v33.3h-62.6v85.3H256V512H85.3C40.5,512,0,471.5,0,426.6V85.3C0,40.5,40.5,0,85.3,0h341.4
		C471.5,0,512,40.5,512,85.3z"/>
</g>
</svg>
