<?xml version="1.0" encoding="utf-8"?>
<!-- Generator: Adobe Illustrator 20.1.0, SVG Export Plug-In . SVG Version: 6.00 Build 0)  -->
<svg version="1.1" id="Capa_1" xmlns="http://www.w3.org/2000/svg" xmlns:xlink="http://www.w3.org/1999/xlink" x="0px" y="0px"
	 viewBox="0 0 512 512" style="enable-background:new 0 0 512 512;" xml:space="preserve">
<style type="text/css">
	.st0{fill:#303542;}
	.st1{fill:#AEB1BA;}
</style>
<g id="XMLID_1_">
	<g>
		<path class="st0" d="M512,96v320c0,26.4-9.4,49-28.2,67.8C465.1,502.6,442.4,512,416,512H96c-26.4,0-49.1-9.4-67.8-28.2
			C9.4,465.1,0,442.4,0,416V96c0-26.4,9.4-49.1,28.2-67.8C46.9,9.4,69.6,0,96,0h320c26.4,0,49.1,9.4,67.8,28.2
			C502.6,46.9,512,69.6,512,96z M420.7,256c0-19.6-6.9-36.2-20.7-50s-30.4-20.7-50-20.7s-36.2,6.9-50,20.7s-20.7,30.4-20.7,50
			s6.9,36.2,20.7,50s30.4,20.7,50,20.7s36.2-6.9,50-20.7S420.7,275.6,420.7,256z M232.7,256c0-19.6-6.9-36.2-20.7-50
			s-30.4-20.7-50-20.7s-36.2,6.9-50,20.7s-20.7,30.4-20.7,50s6.9,36.2,20.7,50s30.4,20.7,50,20.7s36.2-6.9,50-20.7
			S232.7,275.6,232.7,256z"/>
		<path class="st1" d="M400,206c13.8,13.8,20.7,30.4,20.7,50s-6.9,36.2-20.7,50s-30.4,20.7-50,20.7s-36.2-6.9-50-20.7
			s-20.7-30.4-20.7-50s6.9-36.2,20.7-50s30.4-20.7,50-20.7S386.2,192.2,400,206z"/>
		<path class="st1" d="M212,206c13.8,13.8,20.7,30.4,20.7,50s-6.9,36.2-20.7,50s-30.4,20.7-50,20.7s-36.2-6.9-50-20.7
			s-20.7-30.4-20.7-50s6.9-36.2,20.7-50s30.4-20.7,50-20.7S198.2,192.2,212,206z"/>
	</g>
	<g>
	</g>
</g>
</svg>
