<?xml version="1.0" encoding="utf-8"?>
<!-- Generator: Adobe Illustrator 20.1.0, SVG Export Plug-In . SVG Version: 6.00 Build 0)  -->
<svg version="1.1" id="Capa_1" xmlns="http://www.w3.org/2000/svg" xmlns:xlink="http://www.w3.org/1999/xlink" x="0px" y="0px"
	 viewBox="0 0 512 512" style="enable-background:new 0 0 512 512;" xml:space="preserve">
<style type="text/css">
	.st0{fill:#AEB1BA;}
	.st1{fill:#303542;}
</style>
<circle class="st0" cx="162" cy="256" r="74.5"/>
<circle class="st0" cx="350" cy="256" r="74.5"/>
<g>
	<path class="st1" d="M483.8,28.2C465.1,9.4,442.4,0,416,0H96C69.6,0,46.9,9.4,28.2,28.2C9.4,46.9,0,69.6,0,96v320
		c0,26.4,9.4,49.1,28.2,67.8C46.9,502.6,69.6,512,96,512h320c26.4,0,49.1-9.4,67.8-28.2c18.8-18.8,28.2-41.4,28.2-67.8V96
		C512,69.6,502.6,46.9,483.8,28.2z M212,306c-13.8,13.8-30.4,20.7-50,20.7c-19.6,0-36.2-6.9-50-20.7c-13.8-13.8-20.7-30.4-20.7-50
		c0-19.6,6.9-36.2,20.7-50c13.8-13.8,30.4-20.7,50-20.7c19.6,0,36.2,6.9,50,20.7c13.8,13.8,20.7,30.4,20.7,50
		C232.7,275.6,225.8,292.2,212,306z M400,306c-13.8,13.8-30.4,20.7-50,20.7c-19.6,0-36.2-6.9-50-20.7c-13.8-13.8-20.7-30.4-20.7-50
		c0-19.6,6.9-36.2,20.7-50c13.8-13.8,30.4-20.7,50-20.7c19.6,0,36.2,6.9,50,20.7c13.8,13.8,20.7,30.4,20.7,50
		C420.7,275.6,413.8,292.2,400,306z"/>
</g>
</svg>
