<?xml version="1.0" encoding="utf-8"?>
<!-- Generator: Adobe Illustrator 20.1.0, SVG Export Plug-In . SVG Version: 6.00 Build 0)  -->
<svg version="1.1" id="Capa_1" xmlns="http://www.w3.org/2000/svg" xmlns:xlink="http://www.w3.org/1999/xlink" x="0px" y="0px"
	 viewBox="0 0 512 512" style="enable-background:new 0 0 512 512;" xml:space="preserve">
<style type="text/css">
	.st0{fill:#646A7A;}
	.st1{fill:#070A13;}
</style>
<path class="st0" d="M449.5,448h-387C28,448,0,420,0,385.5v-259C0,92,28,64,62.5,64h387C484,64,512,92,512,126.5v259
	C512,420,484,448,449.5,448z"/>
<g>
	<path class="st1" d="M512,384c0,11.2-3.2,21.6-8.2,30.8L342.1,233.9L502,94c6.2,9.9,10,21.5,10,34L512,384L512,384z M256,266.7
		L478.5,72.1c-9.1-5-19.4-8.1-30.5-8.1H64c-11.1,0-21.4,3.1-30.5,8.1L256,266.7z M318,255l-51.5,45.1c-3,2.6-6.8,3.9-10.5,3.9
		c-3.8,0-7.5-1.3-10.5-3.9L194,255L30.2,438.2c9.8,6.2,21.3,9.8,33.7,9.8h384c12.4,0,23.9-3.7,33.7-9.8L318,255z M10,94
		c-6.2,9.9-10,21.5-10,34v256c0,11.2,3.1,21.6,8.2,30.8l161.6-180.9L10,94z"/>
</g>
</svg>
