<?xml version="1.0" encoding="utf-8"?>
<!-- Generator: Adobe Illustrator 20.1.0, SVG Export Plug-In . SVG Version: 6.00 Build 0)  -->
<svg version="1.1" id="Слой_1" xmlns="http://www.w3.org/2000/svg" xmlns:xlink="http://www.w3.org/1999/xlink" x="0px" y="0px"
	 viewBox="0 0 512 512" style="enable-background:new 0 0 512 512;" xml:space="preserve">
<style type="text/css">
	.st0{fill:#AEB1BA;}
</style>
<g>
	<g>
		<path class="st0" d="M29.9,171c-2.9,0-5.3-2.4-5.3-5.3v-38.6c0-2.9,2.4-5.3,5.3-5.3h452.2c2.9,0,5.3,2.4,5.3,5.3v38.6
			c0,2.9-2.4,5.3-5.3,5.3H29.9z"/>
		<path class="st0" d="M482.1,122.3c2.7,0,4.8,2.2,4.8,4.8v38.6c0,2.7-2.2,4.8-4.8,4.8H29.9c-2.7,0-4.8-2.2-4.8-4.8v-38.6
			c0-2.7,2.2-4.8,4.8-4.8L482.1,122.3 M482.1,121.3H29.9c-3.2,0-5.8,2.6-5.8,5.8v38.6c0,3.2,2.6,5.8,5.8,5.8h452.2
			c3.2,0,5.8-2.6,5.8-5.8v-38.6C487.9,123.9,485.3,121.3,482.1,121.3L482.1,121.3z"/>
	</g>
	<g>
		<path class="st0" d="M29.9,280.3c-2.9,0-5.3-2.4-5.3-5.3v-38.6c0-2.9,2.4-5.3,5.3-5.3h452.2c2.9,0,5.3,2.4,5.3,5.3V275
			c0,2.9-2.4,5.3-5.3,5.3H29.9z"/>
		<path class="st0" d="M482.1,231.6c2.7,0,4.8,2.2,4.8,4.8V275c0,2.7-2.2,4.8-4.8,4.8H29.9c-2.7,0-4.8-2.2-4.8-4.8v-38.6
			c0-2.7,2.2-4.8,4.8-4.8L482.1,231.6 M482.1,230.6H29.9c-3.2,0-5.8,2.6-5.8,5.8V275c0,3.2,2.6,5.8,5.8,5.8h452.2
			c3.2,0,5.8-2.6,5.8-5.8v-38.6C487.9,233.2,485.3,230.6,482.1,230.6L482.1,230.6z"/>
	</g>
	<g>
		<path class="st0" d="M29.9,389.6c-2.9,0-5.3-2.4-5.3-5.3v-38.6c0-2.9,2.4-5.3,5.3-5.3h452.2c2.9,0,5.3,2.4,5.3,5.3v38.6
			c0,2.9-2.4,5.3-5.3,5.3H29.9z"/>
		<path class="st0" d="M482.1,340.8c2.7,0,4.8,2.2,4.8,4.8v38.6c0,2.7-2.2,4.8-4.8,4.8H29.9c-2.7,0-4.8-2.2-4.8-4.8v-38.6
			c0-2.7,2.2-4.8,4.8-4.8H482.1 M482.1,339.8H29.9c-3.2,0-5.8,2.6-5.8,5.8v38.6c0,3.2,2.6,5.8,5.8,5.8h452.2c3.2,0,5.8-2.6,5.8-5.8
			v-38.6C487.9,342.4,485.3,339.8,482.1,339.8L482.1,339.8z"/>
	</g>
</g>
</svg>
