<?xml version="1.0" encoding="utf-8"?>
<!-- Generator: Adobe Illustrator 20.1.0, SVG Export Plug-In . SVG Version: 6.00 Build 0)  -->
<svg version="1.1" id="Capa_1" xmlns="http://www.w3.org/2000/svg" xmlns:xlink="http://www.w3.org/1999/xlink" x="0px" y="0px"
	 viewBox="0 0 512 512" style="enable-background:new 0 0 512 512;" xml:space="preserve">
<style type="text/css">
	.st0{fill:#303542;}
	.st1{fill:#AEB1BA;}
</style>
<g>
	<g>
		<g>
			<g>
				<path class="st0" d="M416,0H96C43,0,0,43,0,96v320c0,53,43,96,96,96h320c53,0,96-43,96-96V96C512,43,469,0,416,0z M309.2,314
					c7.9-6,17.8-9.6,28.4-9.6c26.1,0,47.3,21.1,47.3,47.3c0,26.1-21.1,47.3-47.3,47.3c-26.1,0-47.3-21.2-47.3-47.3l0,0l-120.6-58.3
					c-7.4,4.8-16.2,7.6-25.6,7.6c-26.1,0-47.3-21.2-47.3-47.3s21.2-47.3,47.3-47.3c11.1,0,21.3,3.9,29.4,10.3l116.7-56.4l0,0
					c0-26.1,21.2-47.3,47.3-47.3c26.1,0,47.3,21.2,47.3,47.3s-21.2,47.3-47.3,47.3c-10.7,0-20.5-3.6-28.4-9.6l-117.8,56.9l-0.1,2.1
					L309.2,314z"/>
			</g>
		</g>
	</g>
	<path class="st1" d="M171.4,294.2l113.1,54.7l5.7,2.8c0,0.6,0,1.2,0,1.8c0.9,25.3,21.8,45.5,47.3,45.5c26.2,0,47.3-21.2,47.3-47.3
		c0-26.2-21.2-47.3-47.3-47.3c-8.9,0-17.3,2.5-24.4,6.9c-1.4,0.8-2.7,1.7-4,2.7l-5.8-2.8l-106.4-51.4l-5.9-2.8l0.1-2.1l0.6-0.3
		l111.4-53.8l5.9-2.8c1.1,0.8,2.2,1.6,3.4,2.4c7.5,4.7,16.3,7.4,25.9,7.2c24.8-0.5,45.4-20.5,46.4-45.3c1.1-27-20.5-49.2-47.3-49.2
		c-13,0-24.9,5.3-33.4,13.9c-7.5,7.5-12.5,17.4-13.6,28.5c-0.2,1.6-0.3,3.3-0.3,4.9l-5.6,2.7l-111.1,53.7c-1.6-1.3-3.4-2.5-5.2-3.6
		l-0.1,0.1c-0.3-0.2-0.6-0.5-0.9-0.7c-8-4.5-17.5-6.9-27.6-5.9c-23.1,2.1-41.4,21-42.8,44.2C95.2,278.2,117,301,144.1,301
		c9.4,0,18.2-2.8,25.6-7.6L171.4,294.2"/>
</g>
</svg>
