<?xml version="1.0" encoding="utf-8"?>
<!-- Generator: Adobe Illustrator 20.1.0, SVG Export Plug-In . SVG Version: 6.00 Build 0)  -->
<svg version="1.1" id="Capa_1" xmlns="http://www.w3.org/2000/svg" xmlns:xlink="http://www.w3.org/1999/xlink" x="0px" y="0px"
	 viewBox="0 0 512 512" style="enable-background:new 0 0 512 512;" xml:space="preserve">
<style type="text/css">
	.st0{fill:#646A7A;}
	.st1{fill:#070A13;}
</style>
<rect x="173" y="283.6" transform="matrix(0.906 0.4232 -0.4232 0.906 152.3436 -73.6992)" class="st0" width="138.2" height="45.1"/>
<rect x="171.2" y="182" transform="matrix(0.904 -0.4275 0.4275 0.904 -66.4043 122.812)" class="st0" width="138.2" height="54.5"/>
<circle class="st0" cx="137.1" cy="255.6" r="52.6"/>
<circle class="st0" cx="337.1" cy="351.6" r="52.6"/>
<circle class="st0" cx="337.1" cy="160.6" r="52.6"/>
<g>
	<g>
		<g>
			<path class="st1" d="M416,0H96C43,0,0,43,0,96v320c0,53,43,96,96,96h320c53,0,96-43,96-96V96C512,43,469,0,416,0z M309.2,314
				c7.9-6,17.8-9.6,28.4-9.6c26.1,0,47.3,21.1,47.3,47.3c0,26.1-21.1,47.3-47.3,47.3c-26.1,0-47.3-21.2-47.3-47.3v0l-120.6-58.3
				c-7.4,4.8-16.2,7.6-25.6,7.6c-26.1,0-47.3-21.2-47.3-47.3c0-26.1,21.2-47.3,47.3-47.3c11.1,0,21.3,3.9,29.4,10.3l116.7-56.4v0
				c0-26.1,21.2-47.3,47.3-47.3c26.1,0,47.3,21.2,47.3,47.3s-21.2,47.3-47.3,47.3c-10.7,0-20.5-3.6-28.4-9.6l-117.8,56.9l-0.1,2.1
				L309.2,314z"/>
		</g>
	</g>
</g>
</svg>
