<svg xmlns="http://www.w3.org/2000/svg" viewBox="0 0 168.18 155.49"><defs><style>.cls-1,.cls-2{fill:none;stroke:#121212;stroke-linecap:round;stroke-linejoin:round;stroke-width:2px;}.cls-2{fill-rule:evenodd;}</style></defs><title>Ресурс 2</title><g id="Слой_2" data-name="Слой 2"><g id="Слой_2-2" data-name="Слой 2"><line class="cls-1" x1="157.8" y1="1" x2="157.8" y2="9.04"/><line class="cls-1" x1="157.8" y1="13.07" x2="157.8" y2="21.11"/><line class="cls-1" x1="147.07" y1="11.73" x2="155.12" y2="11.73"/><line class="cls-1" x1="159.14" y1="11.73" x2="167.18" y2="11.73"/><circle class="cls-1" cx="135.34" cy="29.04" r="5.03"/><path class="cls-2" d="M95.39,13.2h.37a5.36,5.36,0,0,0,.76.25c1.22.21,1.58.7,1.72,2,.4,3.66.73,7.34,1.31,11,1,6.42,3.7,11.91,9.31,15.7a13.91,13.91,0,0,1,5,6.45q2.31,5.63,5,11.1a36.25,36.25,0,0,0,6.46,9.63c1.6,1.64,3.41,3,5.88,2.77.88-.07,1.13.24,1.13,1.12q0,21.06,0,42.12c0,.81-.27,1.09-1,1.23-4.1.73-8.2,1.52-12.3,2.29-3.06.57-6.1,1.33-9.19,1.65-5.24.53-10.5.94-15.75,1.09a128.83,128.83,0,0,1-17.8-.3,13.17,13.17,0,0,1-7.43-2.82,47,47,0,0,1-3.45-3.23,5.89,5.89,0,0,1-1.79-5.2,6.37,6.37,0,0,0-2.36-6.3,24.74,24.74,0,0,1-2.65-2.74,4.21,4.21,0,0,1-.79-4.8c.51-1.19.9-2.44,1.41-3.64a4,4,0,0,0-.8-4.68c-.81-.86-1.55-1.78-2.28-2.71-1.32-1.68-1.37-2.61-.28-4.47.75-1.28,1.51-2.56,2.23-3.85a3.32,3.32,0,0,0-.32-4c-.65-.83-1.23-1.73-1.89-2.56a3.67,3.67,0,0,1-.58-3.6,18.23,18.23,0,0,1,4.8-7.5,7.36,7.36,0,0,1,4.46-2,135.28,135.28,0,0,1,15.78-.7c3.36,0,6.73.11,10.09.16,1.09,0,1.26-.16,1.45-1.26a8.76,8.76,0,0,0-.64-4.89c-1.49-3.54-3.06-7-4.76-10.49a24.44,24.44,0,0,1-2.06-17.27,11.75,11.75,0,0,1,8.32-8.83C93.56,13.56,94.48,13.41,95.39,13.2Z"/><path class="cls-2" d="M161.21,115.46a1.68,1.68,0,0,0-.21.39c-.55,2.42-2,3.67-4.45,3.7q-6.23.07-12.45,0a4.29,4.29,0,0,1-4.47-4.65c0-13.48,0-27,0-40.45a4.47,4.47,0,0,1,4.66-4.63c4,.12,8.06,0,12.09,0,2.71,0,4,1.07,4.65,3.72a1.94,1.94,0,0,0,.2.4Z"/><circle class="cls-1" cx="153.23" cy="112" r="2.89"/><path class="cls-2" d="M98.87,26.46H93.34S91.29,19,98.28,15.93"/><line class="cls-1" x1="33.18" y1="17.07" x2="53.96" y2="37.85"/><line class="cls-1" x1="53.96" y1="133.71" x2="33.18" y2="154.49"/><line class="cls-1" x1="1" y1="85.45" x2="30.5" y2="85.45"/><line class="cls-1" x1="58.65" y1="73.38" x2="66.69" y2="73.38"/><line class="cls-1" x1="59.99" y1="89.47" x2="65.35" y2="89.47"/><line class="cls-1" x1="62.67" y1="105.56" x2="68.04" y2="105.56"/></g></g></svg>