<svg xmlns="http://www.w3.org/2000/svg" viewBox="0 0 272 386.76"><defs><style>.cls-1{fill:none;stroke:#121212;stroke-linecap:round;stroke-linejoin:round;stroke-width:2px;}</style></defs><title>Ресурс 5</title><g id="Слой_2" data-name="Слой 2"><g id="Слой_2-2" data-name="Слой 2"><path class="cls-1" d="M159.53,214.54a6.81,6.81,0,1,1-13.62,0"/><path class="cls-1" d="M182.86,24.94s-3.71-12,12.8-14.24,29.1,11.35,27,36.74c-.49,6-1.31,13-2.25,20.63"/><path class="cls-1" d="M182.13,296.9a30.34,30.34,0,0,1-60.69,0"/><path class="cls-1" d="M191.42,296.9a39.63,39.63,0,0,1-79.27,0"/><line class="cls-1" x1="97.6" y1="187.6" x2="97.6" y2="118.25"/><polyline class="cls-1" points="97.61 195.03 97.61 234.66 151.79 282.35"/><line class="cls-1" x1="122.37" y1="256.96" x2="122.37" y2="296.59"/><path class="cls-1" d="M147.15,276.77"/><path class="cls-1" d="M147.15,237.14"/><path class="cls-1" d="M85.22,150.45a9.29,9.29,0,0,0-9.29,9.29c0,2.64,6.81,32.2,20.44,28.8"/><line class="cls-1" x1="82.74" y1="150.45" x2="82.74" y2="83.57"/><path class="cls-1" d="M88,156.64s-9.29,2.79,1.55,20.13"/><path class="cls-1" d="M117.42,150.76a9,9,0,1,1,18,0"/><path class="cls-1" d="M119,123.44a9,9,0,0,1,15.57,1.18"/><path class="cls-1" d="M107.67,101.84S104.11,91,116.49,85.58s22.76,9.13,35.76,9.6,27.62-13.22,40.56-9.6c19.35,5.42,7,27.71,7,27.71"/><path class="cls-1" d="M84.19,71.39s12.6-42.59,67.29-35.92C193.8,40.63,201,29.69,201,29.69"/><path class="cls-1" d="M33.2,385.76V320.59c0-12.74,10.33-24,23.07-24h66.11"/><line class="cls-1" x1="57.97" y1="296.59" x2="57.97" y2="385.76"/><line class="cls-1" x1="206.59" y1="187.6" x2="206.59" y2="118.25"/><polyline class="cls-1" points="206.59 195.03 206.59 234.66 152.41 282.35"/><line class="cls-1" x1="181.82" y1="256.96" x2="181.82" y2="296.59"/><path class="cls-1" d="M218.55,150.45a9.29,9.29,0,0,1,9.29,9.29c0,2.64-6.81,32.2-20.44,28.8"/><line class="cls-1" x1="221.46" y1="150.45" x2="221.46" y2="83.57"/><path class="cls-1" d="M215.76,156.64s9.29,2.79-1.55,20.13"/><polyline class="cls-1" points="147.15 152.92 147.15 180.17 142.19 180.17"/><line class="cls-1" x1="142.19" y1="187.6" x2="152.1" y2="187.6"/><path class="cls-1" d="M142.19,187.39a3.61,3.61,0,1,1,0-7.22"/><polyline class="cls-1" points="157.05 152.92 157.05 180.17 162.01 180.17"/><line class="cls-1" x1="162.01" y1="187.6" x2="152.1" y2="187.6"/><path class="cls-1" d="M161.58,187.39a3.61,3.61,0,1,0,0-7.22"/><path class="cls-1" d="M186.35,150.76a9,9,0,0,0-18,0"/><path class="cls-1" d="M184.81,123.44a9,9,0,0,0-15.57,1.18"/><path class="cls-1" d="M271,385.76V320.59c0-12.74-10.76-24-23.5-24H181.82"/><line class="cls-1" x1="246.23" y1="296.59" x2="246.23" y2="385.76"/><path class="cls-1" d="M158.71,297.62a6.81,6.81,0,1,1-13.62,0"/><polygon class="cls-1" points="228.89 368.43 211.55 381.43 194.21 368.43 194.21 338.7 228.89 338.7 228.89 368.43"/><line class="cls-1" x1="194.21" y1="348.61" x2="228.89" y2="348.61"/><path class="cls-1" d="M151.59,191.86a7.17,7.17,0,0,1-3.49,9.53c-3.6,1.67-18.2.54-18.2.54s8.57-11.88,12.17-13.55A7.17,7.17,0,0,1,151.59,191.86Z"/><path class="cls-1" d="M152.86,191.86a7.17,7.17,0,0,0,3.49,9.53c3.59,1.67,18.2.54,18.2.54S166,190,162.38,188.37A7.17,7.17,0,0,0,152.86,191.86Z"/><line class="cls-1" x1="107.51" y1="199.99" x2="107.51" y2="242.1"/><line class="cls-1" x1="117.42" y1="207.42" x2="117.42" y2="252.01"/><line class="cls-1" x1="127.33" y1="214.85" x2="127.33" y2="259.44"/><line class="cls-1" x1="137.24" y1="222.28" x2="137.24" y2="266.87"/><line class="cls-1" x1="147.15" y1="232.19" x2="147.15" y2="276.77"/><line class="cls-1" x1="157.05" y1="232.19" x2="157.05" y2="276.77"/><line class="cls-1" x1="166.96" y1="222.28" x2="166.96" y2="266.87"/><line class="cls-1" x1="176.87" y1="214.85" x2="176.87" y2="259.44"/><line class="cls-1" x1="186.78" y1="207.42" x2="186.78" y2="252.01"/><line class="cls-1" x1="196.69" y1="199.99" x2="196.69" y2="242.1"/><line class="cls-1" x1="72.83" y1="1.83" x2="72.83" y2="16.69"/><line class="cls-1" x1="72.83" y1="24.12" x2="72.83" y2="38.98"/><line class="cls-1" x1="53.02" y1="21.64" x2="67.88" y2="21.64"/><line class="cls-1" x1="75.31" y1="21.64" x2="90.17" y2="21.64"/><circle class="cls-1" cx="10.29" cy="10.29" r="9.29"/></g></g></svg>