<svg xmlns="http://www.w3.org/2000/svg" xmlns:xlink="http://www.w3.org/1999/xlink" viewBox="0 0 182.66 179.19"><defs><style>.cls-1,.cls-2{fill:none;}.cls-2{stroke:#121212;stroke-linecap:round;stroke-linejoin:round;stroke-width:2px;}.cls-3{clip-path:url(#clip-path);}</style><clipPath id="clip-path"><rect class="cls-1" x="78.31" y="137.36" width="84.21" height="40.19"/></clipPath></defs><title>Ресурс 7</title><g id="Слой_2" data-name="Слой 2"><g id="Слой_2-2" data-name="Слой 2"><text></text><path class="cls-2" d="M153.27,27.8c0,14.8-26.79,43.44-26.79,43.44S99.68,42.59,99.68,27.8a26.8,26.8,0,1,1,53.59,0Z"/><polygon class="cls-2" points="126.27 71.47 129.93 78.77 122.62 78.77 126.27 71.47"/><path class="cls-2" d="M126.15,79.73a17.83,17.83,0,0,1,1.27,20.09c-3.28,5.74-11.32,10.85-12.28,24.4"/><path class="cls-2" d="M129.66,14.58l5.9-6S141.63,10,145.29,19l-6.46,5.9S136.92,19,129.66,14.58Z"/><path class="cls-2" d="M41.11,73.94s4.17,5.46,9.49,4.31,7.33-8.48,2-9.35c-4.83-.78-5.61,10.5,4.46,12.22S69.29,74.8,66,72.79s-8.91,8.63,3.16,11.93"/><path class="cls-2" d="M152.53,121.86s-1.86-7.47-7.84-8.66-11.32,5.47-6.22,8.72c4.61,3,10.43-8.31.84-14.55s-15.39,1.08-12.88,4.62,13-4.92,2.05-13.68"/><circle class="cls-2" cx="139.22" cy="80.9" r="3.11"/><circle class="cls-2" cx="146.04" cy="63.31" r="6.82"/><rect class="cls-2" x="5.24" y="118.22" width="59.33" height="59.33"/><rect class="cls-2" x="77.97" y="137.36" width="84.21" height="40.19"/><line class="cls-2" x1="28.21" y1="118.22" x2="28.21" y2="177.55"/><line class="cls-2" x1="39.69" y1="118.22" x2="39.69" y2="177.55"/><line class="cls-2" x1="39.69" y1="152.67" x2="64.57" y2="152.67"/><line class="cls-2" x1="5.24" y1="152.67" x2="28.21" y2="152.67"/><line class="cls-2" x1="39.69" y1="141.19" x2="64.57" y2="141.19"/><line class="cls-2" x1="5.24" y1="141.19" x2="28.21" y2="141.19"/><g class="cls-3"><line class="cls-2" x1="66.06" y1="178.19" x2="93.81" y2="137.36"/><line class="cls-2" x1="56.3" y1="178.19" x2="84.05" y2="137.36"/><line class="cls-2" x1="75.82" y1="178.19" x2="103.57" y2="137.36"/><line class="cls-2" x1="85.58" y1="178.19" x2="113.33" y2="137.36"/><line class="cls-2" x1="95.34" y1="178.19" x2="123.09" y2="137.36"/><line class="cls-2" x1="106.06" y1="178.19" x2="133.81" y2="137.36"/><line class="cls-2" x1="115.63" y1="178.19" x2="143.38" y2="137.36"/><line class="cls-2" x1="125.2" y1="178.19" x2="152.95" y2="137.36"/><line class="cls-2" x1="134.77" y1="178.19" x2="162.52" y2="137.36"/><line class="cls-2" x1="144.34" y1="178.19" x2="172.09" y2="137.36"/><line class="cls-2" x1="153.91" y1="178.19" x2="181.66" y2="137.36"/></g><path class="cls-2" d="M31.47,117.7S8.83,106.56,18.39,99.94C27.11,93.91,31.47,117.7,31.47,117.7Z"/><path class="cls-2" d="M36.15,117.7s22.64-11.14,13.07-17.76C40.51,93.91,36.15,117.7,36.15,117.7Z"/></g></g></svg>