<svg xmlns="http://www.w3.org/2000/svg" viewBox="0 0 199.59 150.48"><defs><style>.cls-1,.cls-2{fill:none;stroke:#121212;stroke-linecap:round;stroke-linejoin:round;stroke-width:2px;}.cls-2{fill-rule:evenodd;}</style></defs><title>Ресурс 6</title><g id="Слой_2" data-name="Слой 2"><g id="Слой_2-2" data-name="Слой 2"><circle class="cls-1" cx="14.41" cy="46.25" r="5.03"/><line class="cls-1" x1="37.2" y1="8.71" x2="37.2" y2="16.75"/><line class="cls-1" x1="37.2" y1="20.78" x2="37.2" y2="28.82"/><line class="cls-1" x1="26.47" y1="19.44" x2="34.52" y2="19.44"/><line class="cls-1" x1="38.54" y1="19.44" x2="46.58" y2="19.44"/><line class="cls-1" x1="135.07" y1="129.37" x2="135.07" y2="137.42"/><line class="cls-1" x1="135.07" y1="141.44" x2="135.07" y2="149.48"/><line class="cls-1" x1="124.35" y1="140.1" x2="132.39" y2="140.1"/><line class="cls-1" x1="136.41" y1="140.1" x2="144.46" y2="140.1"/><path class="cls-2" d="M7,114.46s-10.05-5-3.35-12.23,114.46-95,114.46-95,8.38-9.89,22.46-4.69,54,20.78,54,20.78,10.05,4.19-2.18,14.91S79.94,133.56,79.94,133.56s-7.54,5.7-19.11,1.51S7,114.46,7,114.46Z"/><path class="cls-2" d="M198.38,41.72c-.35,2.2-2,5-6,8.55C180.15,61,79.94,145.63,79.94,145.63s-7.54,5.7-19.11,1.51S7,126.52,7,126.52a13.13,13.13,0,0,1-4.73-4.19"/><line class="cls-1" x1="1" y1="106.36" x2="2.12" y2="122.45"/><line class="cls-1" x1="198.59" y1="27.65" x2="198.42" y2="41.72"/></g></g></svg>