<svg xmlns="http://www.w3.org/2000/svg" viewBox="0 0 193.39 187.02"><defs><style>.cls-1{fill:none;stroke:#121212;stroke-linecap:round;stroke-linejoin:round;stroke-width:2px;}</style></defs><title>Ресурс 4</title><g id="Слой_2" data-name="Слой 2"><g id="Слой_2-2" data-name="Слой 2"><line class="cls-1" x1="16.08" y1="8.5" x2="16.08" y2="16.54"/><line class="cls-1" x1="16.08" y1="20.57" x2="16.08" y2="28.61"/><line class="cls-1" x1="5.36" y1="19.22" x2="13.4" y2="19.22"/><line class="cls-1" x1="17.42" y1="19.22" x2="25.47" y2="19.22"/><line class="cls-1" x1="178.94" y1="124.47" x2="178.94" y2="136"/><line class="cls-1" x1="178.94" y1="141.77" x2="178.94" y2="153.3"/><line class="cls-1" x1="163.56" y1="139.84" x2="175.09" y2="139.84"/><line class="cls-1" x1="180.86" y1="139.84" x2="192.39" y2="139.84"/><circle class="cls-1" cx="6.03" cy="53.75" r="5.03"/><rect class="cls-1" x="70.98" y="167.25" width="65.7" height="18.77"/><path class="cls-1" d="M71.24,167.7s-12.12-11.21-26.67-34.53l3,.36s5.78,4.84,9.89,5.22,47.86,0,47.86,0,11.27-2.8,12.61-14.55V82l-9.06-24.62a12.81,12.81,0,0,1,8.34-14.74s16.2,38.61,19.93,49.43,5.58,17.35,3.53,27a236.56,236.56,0,0,0-5.1,47.92"/><path class="cls-1" d="M42.82,61.52l-9.67-4.66s-4.46-2-2.81-8.4c1.72-6.71,12.48-2.24,12.48-2.24Z"/><path class="cls-1" d="M112.54,82.78v42.95a6.46,6.46,0,0,1-6.34,6.66H54.89"/><path class="cls-1" d="M49.53,68V7.93C49.53,4.25,52.12,1,55.68,1H106.2c3.56,0,6.34,3.25,6.34,6.93V38.54"/><polyline class="cls-1" points="107.18 72.06 107.18 110.94 57.57 110.94"/><polyline class="cls-1" points="54.89 73.4 54.89 17.09 107.18 17.09 107.18 42.56"/><circle class="cls-1" cx="81.03" cy="121.77" r="5.78"/><rect class="cls-1" x="72.32" y="7.7" width="17.43" height="4.02" rx="1.68" ry="1.68"/><path class="cls-1" d="M52.09,88.79a6.43,6.43,0,0,1-9.1.05L32.25,78.22a6.44,6.44,0,0,1-.05-9.1h0a6.43,6.43,0,0,1,9.1-.05L52,79.69a6.44,6.44,0,0,1,.05,9.1Z"/><path class="cls-1" d="M51.46,106.5a5.94,5.94,0,0,1-8.4,0l-9.91-9.8a5.94,5.94,0,0,1,0-8.4h0a5.94,5.94,0,0,1,8.4,0l9.91,9.8a5.94,5.94,0,0,1,0,8.4Z"/><path class="cls-1" d="M53.21,126.29a6.44,6.44,0,0,1-9.1.05L33.37,115.71a6.44,6.44,0,0,1-.05-9.1h0a6.44,6.44,0,0,1,9.1-.05l10.74,10.62a6.44,6.44,0,0,1,.05,9.1Z"/><line class="cls-1" x1="151.42" y1="39.88" x2="171.53" y2="26.47"/><line class="cls-1" x1="171.53" y1="86.81" x2="151.42" y2="73.4"/><line class="cls-1" x1="158.13" y1="57.31" x2="172.87" y2="57.31"/></g></g></svg>