<svg xmlns="http://www.w3.org/2000/svg" viewBox="0 0 163.02 133.7"><defs><style>.cls-1{fill:none;stroke:#121212;stroke-linecap:round;stroke-linejoin:round;stroke-width:2px;}</style></defs><title>Ресурс 8</title><g id="Слой_2" data-name="Слой 2"><g id="Слой_2-2" data-name="Слой 2"><circle class="cls-1" cx="31.32" cy="23.49" r="13.87"/><path class="cls-1" d="M42.1,13c8-2.79,13.88-3.64,14.77-1.79,1.33,2.76-9,10.51-23.13,17.3S7.12,38.56,5.78,35.8C4.87,33.91,9.45,29.68,17,25"/><circle class="cls-1" cx="70.92" cy="4.23" r="3.23"/><circle class="cls-1" cx="106.05" cy="118.86" r="3.24"/><circle class="cls-1" cx="117.14" cy="87.43" r="3.23"/><circle class="cls-1" cx="141.17" cy="92.98" r="3.24"/><circle class="cls-1" cx="83.47" cy="51.54" r="7.86" transform="translate(-11.99 74.12) rotate(-45)"/><path class="cls-1" d="M84.13,87.49c10.41-10.41,32.68-70.38,32.68-70.38s-60,22.27-70.38,32.68c-2.59,2.59-14.05.54-14.05.54L20.61,62.1,16.69,66,1,81.71l33.41,2L49.89,99.23,52,132.7,67.67,117l3.92-3.92,11.77-11.77S81.54,90.08,84.13,87.49Z"/><line class="cls-1" x1="28.45" y1="93.48" x2="8.84" y2="113.09"/><line class="cls-1" x1="34.99" y1="100.02" x2="8.84" y2="126.16"/><line class="cls-1" x1="41.53" y1="106.55" x2="21.92" y2="126.16"/><polygon class="cls-1" points="150.47 35.54 154.03 42.77 162.02 43.93 156.24 49.56 157.61 57.52 150.47 53.76 143.32 57.52 144.69 49.56 138.91 43.93 146.89 42.77 150.47 35.54"/></g></g></svg>