<svg xmlns="http://www.w3.org/2000/svg" viewBox="0 0 217.18 187.02"><defs><style>.cls-1{fill:none;stroke:#121212;stroke-linecap:round;stroke-linejoin:round;stroke-width:2px;}</style></defs><title>Ресурс 1</title><g id="Слой_2" data-name="Слой 2"><g id="Слой_2-2" data-name="Слой 2"><line class="cls-1" x1="39.88" y1="1.45" x2="39.88" y2="9.49"/><line class="cls-1" x1="39.88" y1="13.51" x2="39.88" y2="21.56"/><line class="cls-1" x1="29.15" y1="12.17" x2="37.2" y2="12.17"/><line class="cls-1" x1="41.22" y1="12.17" x2="49.27" y2="12.17"/><line class="cls-1" x1="202.73" y1="117.42" x2="202.73" y2="128.95"/><line class="cls-1" x1="202.73" y1="134.71" x2="202.73" y2="146.25"/><line class="cls-1" x1="187.36" y1="132.79" x2="198.89" y2="132.79"/><line class="cls-1" x1="204.65" y1="132.79" x2="216.18" y2="132.79"/><circle class="cls-1" cx="6.03" cy="6.03" r="5.03"/><path class="cls-1" d="M105.21,185.64s17.87-73-40.67-120.49c0,0,67.66,33.45,55.87,120.87Z"/><path class="cls-1" d="M103.69,94.42l-4.94-6.84s8-12.16,6.46-37.63C105.21,49.95,114.72,70.47,103.69,94.42Z"/><path class="cls-1" d="M121.56,128.63s-2.66-9.5-6.46-15.2c0,0,28.51-30.41,51.31-41.05C166.41,72.37,131.44,99.36,121.56,128.63Z"/><path class="cls-1" d="M124,98.36l-8,7.55s-6.13-39.77,11.12-61C127.16,44.91,117.75,73.84,124,98.36Z"/><path class="cls-1" d="M116.33,25.1c0,6.61-12,19.53-12,19.53s-12-12.91-12-19.53a12,12,0,0,1,23.95,0Z"/><line class="cls-1" x1="104.23" y1="14.86" x2="104.23" y2="43.01"/><line class="cls-1" x1="94.81" y1="18.83" x2="103.64" y2="25.24"/><line class="cls-1" x1="93.1" y1="25.81" x2="103.64" y2="33.22"/><line class="cls-1" x1="114.48" y1="18.83" x2="105.64" y2="25.24"/><line class="cls-1" x1="116.19" y1="25.81" x2="105.64" y2="33.22"/><path class="cls-1" d="M36.72,52.25c6.61,0,19.53,12,19.53,12s-12.91,12-19.53,12a12,12,0,1,1,0-23.95Z"/><line class="cls-1" x1="26.47" y1="64.46" x2="54.63" y2="64.46"/><line class="cls-1" x1="30.45" y1="73.77" x2="36.87" y2="64.94"/><line class="cls-1" x1="37.44" y1="75.48" x2="44.85" y2="64.94"/><line class="cls-1" x1="30.45" y1="54.1" x2="36.87" y2="62.94"/><line class="cls-1" x1="37.44" y1="52.39" x2="44.85" y2="62.94"/><path class="cls-1" d="M152.91,37.35c-4.84,4.5-22.45,4.53-22.45,4.53s1.3-17.56,6.15-22.07a12,12,0,1,1,16.31,17.54Z"/><line class="cls-1" x1="152.36" y1="21.9" x2="131.48" y2="41.31"/><line class="cls-1" x1="142.84" y1="17.32" x2="144.16" y2="28.16"/><line class="cls-1" x1="136.56" y1="20.82" x2="138.32" y2="33.59"/><line class="cls-1" x1="156.24" y1="31.72" x2="145.52" y2="29.62"/><line class="cls-1" x1="152.29" y1="37.73" x2="139.68" y2="35.05"/><path class="cls-1" d="M136.2,75.88c-5.12-4.18-7.55-21.63-7.55-21.63s17.58-1.1,22.7,3.09A12,12,0,0,1,136.2,75.88Z"/><line class="cls-1" x1="151.43" y1="73.24" x2="129.35" y2="55.2"/><line class="cls-1" x1="154.67" y1="63.18" x2="144.11" y2="65.97"/><line class="cls-1" x1="150.35" y1="57.44" x2="137.93" y2="60.92"/><line class="cls-1" x1="142.23" y1="78.42" x2="142.85" y2="67.51"/><line class="cls-1" x1="135.73" y1="75.32" x2="136.67" y2="62.47"/><path class="cls-1" d="M177.25,98.69c-5.12-4.18-7.55-21.63-7.55-21.63s17.58-1.1,22.7,3.08a12,12,0,0,1-15.15,18.54Z"/><line class="cls-1" x1="192.48" y1="96.04" x2="170.4" y2="78.01"/><line class="cls-1" x1="195.72" y1="85.99" x2="185.16" y2="88.78"/><line class="cls-1" x1="191.39" y1="80.25" x2="178.98" y2="83.73"/><line class="cls-1" x1="183.28" y1="101.22" x2="183.9" y2="90.32"/><line class="cls-1" x1="176.79" y1="98.13" x2="177.72" y2="85.27"/><path class="cls-1" d="M141.66,122.27c-1.71-6.39,6.53-22,6.53-22s14.9,9.39,16.6,15.78a12,12,0,1,1-23.13,6.17Z"/><line class="cls-1" x1="155.56" y1="129.04" x2="148.21" y2="101.49"/><line class="cls-1" x1="164.07" y1="122.78" x2="153.88" y2="118.86"/><line class="cls-1" x1="163.92" y1="115.59" x2="151.82" y2="111.15"/><line class="cls-1" x1="145.06" y1="127.85" x2="151.95" y2="119.38"/><line class="cls-1" x1="141.61" y1="121.55" x2="149.89" y2="111.67"/><path class="cls-1" d="M88.2,48.26c-3.1,5.84-19.73,11.63-19.73,11.63S63.95,42.86,67,37A12,12,0,1,1,88.2,48.26Z"/><line class="cls-1" x1="82.62" y1="33.84" x2="69.25" y2="59.01"/><line class="cls-1" x1="72.13" y1="32.62" x2="76.93" y2="42.43"/><line class="cls-1" x1="67.34" y1="37.99" x2="73.18" y2="49.48"/><line class="cls-1" x1="89.5" y1="41.85" x2="78.69" y2="43.37"/><line class="cls-1" x1="87.74" y1="48.82" x2="74.94" y2="50.42"/><path class="cls-1" d="M59.68,104c5.14-4.16,22.71-3,22.71-3s-2.5,17.43-7.64,21.6A12,12,0,0,1,59.68,104Z"/><line class="cls-1" x1="59.17" y1="119.5" x2="81.32" y2="101.56"/><line class="cls-1" x1="68.35" y1="124.72" x2="67.77" y2="113.82"/><line class="cls-1" x1="74.85" y1="121.65" x2="73.97" y2="108.79"/><line class="cls-1" x1="55.97" y1="109.43" x2="66.52" y2="112.26"/><line class="cls-1" x1="60.32" y1="103.71" x2="72.72" y2="107.24"/><path class="cls-1" d="M31.17,96.06c5.14-4.16,22.71-3,22.71-3s-2.5,17.43-7.64,21.6A12,12,0,0,1,31.17,96.06Z"/><line class="cls-1" x1="30.66" y1="111.51" x2="52.81" y2="93.58"/><line class="cls-1" x1="39.84" y1="116.74" x2="39.27" y2="105.83"/><line class="cls-1" x1="46.35" y1="113.67" x2="45.47" y2="100.81"/><line class="cls-1" x1="27.46" y1="101.45" x2="38.01" y2="104.28"/><line class="cls-1" x1="31.81" y1="95.72" x2="44.21" y2="99.26"/></g></g></svg>